<?xml version="1.0" encoding="UTF-8" standalone="no"?>
<svg width="14px" height="13px" viewBox="0 0 14 13" version="1.1" xmlns="http://www.w3.org/2000/svg" xmlns:xlink="http://www.w3.org/1999/xlink" xmlns:sketch="http://www.bohemiancoding.com/sketch/ns">
    <!-- Generator: Sketch 3.2 (9961) - http://www.bohemiancoding.com/sketch -->
    <title>Slice 1</title>
    <desc>Created with Sketch.</desc>
    <defs></defs>
    <g id="Page-1" stroke="none" stroke-width="1" fill="none" fill-rule="evenodd" sketch:type="MSPage">
        <g id="Pencil-Icon" sketch:type="MSLayerGroup" fill="#647096">
            <g id="Welcome" sketch:type="MSShapeGroup">
                <g id="Home">
                    <path d="M11.571274,1.306577 C10.435424,0.169565 9.607809,0 9.215952,0 C9.110729,0 9.041742,0.012543 9.00992,0.019976 L8.888437,0.048082 L0.944452,7.991835 L0,12.859733 L5.004014,12.062083 L12.952413,4.112987 L12.980519,3.991272 C13.020471,3.81892 13.141024,2.876327 11.571274,1.306577 L11.571274,1.306577 L11.571274,1.306577 Z M1.295659,10.752951 L1.727701,8.525383 C1.9925,8.576949 2.539753,8.782053 3.317195,9.559727 C4.16734,10.410802 4.403337,10.987089 4.46675,11.265593 L2.172982,11.631203 L1.295659,10.752951 L1.295659,10.752951 Z M4.831662,10.017087 L9.742067,5.10645 C9.945312,5.447669 10.008028,5.683434 10.026146,5.808865 L5.181012,10.653999 C5.101107,10.466085 4.98938,10.253781 4.831662,10.017087 L4.831662,10.017087 L4.831662,10.017087 Z M4.29254,9.324659 C4.183832,9.202248 4.064905,9.07519 3.934363,8.94372 C3.847955,8.857544 3.764566,8.778569 3.682107,8.703077 L8.608075,3.77711 C8.689605,3.850742 8.773923,3.928789 8.861028,4.016823 C8.995518,4.151081 9.112355,4.278138 9.217811,4.398692 L4.29254,9.324659 L4.29254,9.324659 Z M2.994325,8.158845 C2.759257,8.001823 2.546024,7.888471 2.35718,7.810424 L7.196043,2.971562 C7.3231,2.986892 7.56351,3.044962 7.90473,3.248207 L2.994325,8.158845 L2.994325,8.158845 Z M10.723916,5.110166 C10.538788,4.672782 10.175038,4.098353 9.477268,3.400583 C8.847556,2.770871 8.316795,2.438943 7.901246,2.266591 L9.29214,0.875464 C9.509787,0.901944 10.092346,1.057804 10.956196,1.921655 C11.905293,2.870752 12.088562,3.480488 12.122243,3.712768 L10.723916,5.110166 L10.723916,5.110166 Z" id="Pencil-Icon"></path>
                </g>
            </g>
        </g>
    </g>
</svg>